<svg width="512" height="512" viewBox="0 0 512 512" fill="none" xmlns="http://www.w3.org/2000/svg">
  <rect width="512" height="512" rx="120" fill="#030611"/>
  <path d="M132 148C132 132.536 144.536 120 160 120H352C367.464 120 380 132.536 380 148V364C380 379.464 367.464 392 352 392H160C144.536 392 132 379.464 132 364V148Z" fill="url(#paint0_linear_1_2)"/>
  <path d="M184 170C184 155.641 194.641 145 209 145H343C357.359 145 368 155.641 368 170V304C368 318.359 357.359 329 343 329H209C194.641 329 184 318.359 184 304V170Z" fill="#081224"/>
  <path d="M208 182H332" stroke="#67E8F9" stroke-width="18" stroke-linecap="round"/>
  <path d="M208 222H308" stroke="#67E8F9" stroke-width="18" stroke-linecap="round"/>
  <path d="M208 262H286" stroke="#67E8F9" stroke-width="18" stroke-linecap="round"/>
  <path d="M208 302H250" stroke="#67E8F9" stroke-width="18" stroke-linecap="round"/>
  <path d="M150 409L198 356" stroke="#38BDF8" stroke-width="24" stroke-linecap="round"/>
  <path d="M198 356L250 409" stroke="#38BDF8" stroke-width="24" stroke-linecap="round"/>
  <path d="M250 409L298 356" stroke="#38BDF8" stroke-width="24" stroke-linecap="round"/>
  <path d="M298 356L346 409" stroke="#38BDF8" stroke-width="24" stroke-linecap="round"/>
  <defs>
    <linearGradient id="paint0_linear_1_2" x1="132" y1="120" x2="380" y2="392" gradientUnits="userSpaceOnUse">
      <stop stop-color="#38BDF8"/>
      <stop offset="1" stop-color="#8B5CF6"/>
    </linearGradient>
  </defs>
</svg>
